<svg preserveAspectRatio="none" overflow="visible" style="display: block;" width="73.9084" height="75.33" viewBox="0 0 73.9084 75.33" fill="none" xmlns="http://www.w3.org/2000/svg">
<g id="Group">
<path id="Vector" d="M29.8475 0.473858L29.3744 0.94771H27.9529L23.6889 2.36851L18.0034 5.21164L12.7918 9.00172L7.10707 15.1611L3.31699 21.7935V22.7412L1.42157 27.0052L0.947716 30.3214L0.473858 30.7952V34.5853L0 35.0592L0.473858 44.0609L0.947716 44.5347V46.4294L1.42157 46.9032V48.3248L2.36928 51.1672L6.15936 58.7481L9.47558 63.012L15.1611 68.2237L22.7412 72.4876L29.8475 74.8561H33.1645L33.6384 75.33H40.7447L41.2185 74.8561H44.0609L52.5887 72.0137L58.2742 68.6967L65.8544 61.5904L68.6975 57.3265L71.5399 51.641L72.4876 48.7987V47.3771L72.9615 46.9032V45.0086L73.4353 44.5347V41.2185L73.9084 40.7447L73.4353 30.3214L72.9615 29.8475V28.4267L72.4876 27.9529V26.5313L71.066 22.2674L66.3282 14.2134L59.6958 7.58015L50.6941 2.36851L47.851 1.42157H46.4302L45.9563 0.94771H44.5347L44.0609 0.473858H41.2185L40.7447 0L29.8475 0.473858Z" fill="#2E7A6A"/>
</g>
</svg>
