<svg aria-hidden="true" data-art-kind="reviews" data-lineage="v1.3-approved" focusable="false" viewBox="0 0 180 128" xmlns="http://www.w3.org/2000/svg"><ellipse cx="89" cy="66" fill="#ECF4F0" rx="76" ry="50"/><path d="M20 91C18 60 49 36 75 41s35 57 68 31" fill="none" stroke="#A6C9BB" stroke-dasharray="3 5" stroke-width="1.5"/><g class="art-main"><rect fill="white" height="88" rx="20" stroke="#C4DACE" width="85" x="43" y="20"/><g fill="none" stroke="#2E7A6A" stroke-linecap="round" stroke-linejoin="round" stroke-width="1.55" transform="translate(62 35) scale(1.85)"><path d="M12 2l3 6 7 1-5 5 1 8-6-4-6 4 1-8-5-5 7-1 3-6"/></g><path d="M65 88h42M65 95h26" stroke="#C9DED3" stroke-linecap="round" stroke-width="3"/></g><g class="art-small"><rect fill="#FF7908" height="42" rx="14" width="43" x="120" y="72"/><g fill="none" stroke="#143D35" stroke-linecap="round" stroke-linejoin="round" stroke-width="1.6" transform="translate(130 82)"><g class="icon-tone" fill="currentColor" opacity=".12" stroke="none"><path d="M8 5h9q3 0 3 4v6q0 2-4 2H9l-4 2V9q0-4 3-4Z"/></g><path d="M8 4h8a5 5 0 0 1 5 5v4a5 5 0 0 1-5 5H9l-5 3V9a5 5 0 0 1 4-5Z"/><path d="M8 9h9M8 13h6"/></g></g><circle cx="30" cy="35" fill="#2E7A6A" r="5"/><circle cx="148" cy="33" fill="#FF7908" r="3"/></svg>