<svg aria-hidden="true" data-icon="wallet" fill="none" focusable="false" stroke="currentColor" stroke-linecap="round" stroke-linejoin="round" stroke-width="1.7" viewBox="0 0 24 24" xmlns="http://www.w3.org/2000/svg"><g class="icon-tone" fill="currentColor" opacity=".12" stroke="none"><path d="M5 8h14v11H5Z"/></g><path d="M4 7V5.7A2.7 2.7 0 0 1 6.7 3H18v4M4 7h15a2 2 0 0 1 2 2v10a2 2 0 0 1-2 2H5a2 2 0 0 1-2-2V8a1 1 0 0 1 1-1Z"/><path d="M21 11h-6a3 3 0 0 0 0 6h6"/><circle cx="15.5" cy="14" fill="currentColor" r=".8" stroke="none"/></svg>